<?xml version="1.0" encoding="UTF-8" standalone="no"?>
<!DOCTYPE svg PUBLIC "-//W3C//DTD SVG 1.1//EN"
 "http://www.w3.org/Graphics/SVG/1.1/DTD/svg11.dtd">
<!-- Generated by graphviz version 2.40.1 (20161225.0304)
 -->
<!-- Title: %3 Pages: 1 -->
<svg width="134pt" height="116pt"
 viewBox="0.00 0.00 134.00 116.00" xmlns="http://www.w3.org/2000/svg" xmlns:xlink="http://www.w3.org/1999/xlink">
<g id="graph0" class="graph" transform="scale(1 1) rotate(0) translate(4 112)">
<title>%3</title>
<polygon fill="#ffffff" stroke="transparent" points="-4,4 -4,-112 130,-112 130,4 -4,4"/>
<!-- t1 -->
<g id="node1" class="node">
<title>t1</title>
<ellipse fill="none" stroke="#000000" cx="63" cy="-90" rx="38.1938" ry="18"/>
<text text-anchor="middle" x="63" y="-86.3" font-family="Times,serif" font-size="14.00" fill="#000000">x1 &lt; 10</text>
</g>
<!-- L -->
<g id="node2" class="node">
<title>L</title>
<ellipse fill="none" stroke="#000000" cx="27" cy="-18" rx="27" ry="18"/>
<text text-anchor="middle" x="27" y="-14.3" font-family="Times,serif" font-size="14.00" fill="#000000">L</text>
</g>
<!-- t1&#45;&gt;L -->
<g id="edge1" class="edge">
<title>t1&#45;&gt;L</title>
<path fill="none" stroke="#000000" d="M54.1011,-72.2022C49.8978,-63.7955 44.7959,-53.5917 40.1575,-44.3149"/>
<polygon fill="#000000" stroke="#000000" points="43.1513,-42.4762 35.5486,-35.0972 36.8903,-45.6068 43.1513,-42.4762"/>
</g>
<!-- R -->
<g id="node3" class="node">
<title>R</title>
<ellipse fill="none" stroke="#000000" cx="99" cy="-18" rx="27" ry="18"/>
<text text-anchor="middle" x="99" y="-14.3" font-family="Times,serif" font-size="14.00" fill="#000000">R</text>
</g>
<!-- t1&#45;&gt;R -->
<g id="edge2" class="edge">
<title>t1&#45;&gt;R</title>
<path fill="none" stroke="#000000" d="M71.8989,-72.2022C76.1022,-63.7955 81.2041,-53.5917 85.8425,-44.3149"/>
<polygon fill="#000000" stroke="#000000" points="89.1097,-45.6068 90.4514,-35.0972 82.8487,-42.4762 89.1097,-45.6068"/>
</g>
</g>
</svg>
