<?xml version="1.0" encoding="UTF-8" standalone="no"?>
<!DOCTYPE svg PUBLIC "-//W3C//DTD SVG 1.1//EN"
 "http://www.w3.org/Graphics/SVG/1.1/DTD/svg11.dtd">
<!-- Generated by graphviz version 2.40.1 (20161225.0304)
 -->
<!-- Title: %3 Pages: 1 -->
<svg width="378pt" height="260pt"
 viewBox="0.00 0.00 378.00 260.00" xmlns="http://www.w3.org/2000/svg" xmlns:xlink="http://www.w3.org/1999/xlink">
<g id="graph0" class="graph" transform="scale(1 1) rotate(0) translate(4 256)">
<title>%3</title>
<polygon fill="#ffffff" stroke="transparent" points="-4,4 -4,-256 374,-256 374,4 -4,4"/>
<!-- t1 -->
<g id="node1" class="node">
<title>t1</title>
<ellipse fill="none" stroke="#000000" cx="231.5" cy="-234" rx="38.1938" ry="18"/>
<text text-anchor="middle" x="231.5" y="-230.3" font-family="Times,serif" font-size="14.00" fill="#000000">x1 &lt; 10</text>
</g>
<!-- t1_1L -->
<g id="node2" class="node">
<title>t1_1L</title>
<ellipse fill="none" stroke="#000000" cx="185.5" cy="-162" rx="34.394" ry="18"/>
<text text-anchor="middle" x="185.5" y="-158.3" font-family="Times,serif" font-size="14.00" fill="#000000">x2 &lt; 2</text>
</g>
<!-- t1&#45;&gt;t1_1L -->
<g id="edge1" class="edge">
<title>t1&#45;&gt;t1_1L</title>
<path fill="none" stroke="#000000" d="M220.3647,-216.5708C214.8839,-207.9922 208.1654,-197.4762 202.094,-187.9732"/>
<polygon fill="#000000" stroke="#000000" points="204.8662,-185.8113 196.5328,-179.2687 198.9673,-189.58 204.8662,-185.8113"/>
</g>
<!-- t1_1R -->
<g id="node3" class="node">
<title>t1_1R</title>
<polygon fill="none" stroke="#000000" points="319,-180 238,-180 238,-144 319,-144 319,-180"/>
<text text-anchor="middle" x="278.5" y="-158.3" font-family="Times,serif" font-size="14.00" fill="#000000">leaf = &#45;0.04</text>
</g>
<!-- t1&#45;&gt;t1_1R -->
<g id="edge2" class="edge">
<title>t1&#45;&gt;t1_1R</title>
<path fill="none" stroke="#000000" d="M242.8774,-216.5708C248.3538,-208.1815 255.0397,-197.9392 261.1338,-188.6035"/>
<polygon fill="#000000" stroke="#000000" points="264.2011,-190.3076 266.7366,-180.0206 258.3395,-186.4812 264.2011,-190.3076"/>
</g>
<!-- t1_2L -->
<g id="node4" class="node">
<title>t1_2L</title>
<ellipse fill="none" stroke="#000000" cx="137.5" cy="-90" rx="34.394" ry="18"/>
<text text-anchor="middle" x="137.5" y="-86.3" font-family="Times,serif" font-size="14.00" fill="#000000">x1 &lt; 2</text>
</g>
<!-- t1_1L&#45;&gt;t1_2L -->
<g id="edge3" class="edge">
<title>t1_1L&#45;&gt;t1_2L</title>
<path fill="none" stroke="#000000" d="M174.1247,-144.937C168.3513,-136.277 161.2154,-125.5731 154.7805,-115.9207"/>
<polygon fill="#000000" stroke="#000000" points="157.5863,-113.8197 149.1271,-107.4407 151.762,-117.7027 157.5863,-113.8197"/>
</g>
<!-- t1_2R -->
<g id="node5" class="node">
<title>t1_2R</title>
<ellipse fill="none" stroke="#000000" cx="234.5" cy="-90" rx="34.394" ry="18"/>
<text text-anchor="middle" x="234.5" y="-86.3" font-family="Times,serif" font-size="14.00" fill="#000000">x1 &lt; 9</text>
</g>
<!-- t1_1L&#45;&gt;t1_2R -->
<g id="edge4" class="edge">
<title>t1_1L&#45;&gt;t1_2R</title>
<path fill="none" stroke="#000000" d="M197.1123,-144.937C203.0059,-136.277 210.2905,-125.5731 216.8595,-115.9207"/>
<polygon fill="#000000" stroke="#000000" points="219.8979,-117.677 222.6307,-107.4407 214.1109,-113.7386 219.8979,-117.677"/>
</g>
<!-- t1_3L1 -->
<g id="node6" class="node">
<title>t1_3L1</title>
<polygon fill="none" stroke="#000000" points="81,-36 0,-36 0,0 81,0 81,-36"/>
<text text-anchor="middle" x="40.5" y="-14.3" font-family="Times,serif" font-size="14.00" fill="#000000">leaf = &#45;0.04</text>
</g>
<!-- t1_2L&#45;&gt;t1_3L1 -->
<g id="edge5" class="edge">
<title>t1_2L&#45;&gt;t1_3L1</title>
<path fill="none" stroke="#000000" d="M117.4015,-75.0816C104.6913,-65.6471 87.9629,-53.2302 73.3551,-42.3873"/>
<polygon fill="#000000" stroke="#000000" points="75.1615,-39.3694 65.0457,-36.2195 70.9894,-44.9902 75.1615,-39.3694"/>
</g>
<!-- t1_3R1 -->
<g id="node7" class="node">
<title>t1_3R1</title>
<polygon fill="none" stroke="#000000" points="176,-36 99,-36 99,0 176,0 176,-36"/>
<text text-anchor="middle" x="137.5" y="-14.3" font-family="Times,serif" font-size="14.00" fill="#000000">leaf = 0.09</text>
</g>
<!-- t1_2L&#45;&gt;t1_3R1 -->
<g id="edge6" class="edge">
<title>t1_2L&#45;&gt;t1_3R1</title>
<path fill="none" stroke="#000000" d="M137.5,-71.8314C137.5,-64.131 137.5,-54.9743 137.5,-46.4166"/>
<polygon fill="#000000" stroke="#000000" points="141.0001,-46.4132 137.5,-36.4133 134.0001,-46.4133 141.0001,-46.4132"/>
</g>
<!-- t1_3L2 -->
<g id="node8" class="node">
<title>t1_3L2</title>
<polygon fill="none" stroke="#000000" points="275,-36 194,-36 194,0 275,0 275,-36"/>
<text text-anchor="middle" x="234.5" y="-14.3" font-family="Times,serif" font-size="14.00" fill="#000000">leaf = &#45;0.02</text>
</g>
<!-- t1_2R&#45;&gt;t1_3L2 -->
<g id="edge7" class="edge">
<title>t1_2R&#45;&gt;t1_3L2</title>
<path fill="none" stroke="#000000" d="M234.5,-71.8314C234.5,-64.131 234.5,-54.9743 234.5,-46.4166"/>
<polygon fill="#000000" stroke="#000000" points="238.0001,-46.4132 234.5,-36.4133 231.0001,-46.4133 238.0001,-46.4132"/>
</g>
<!-- t1_3R2 -->
<g id="node9" class="node">
<title>t1_3R2</title>
<polygon fill="none" stroke="#000000" points="370,-36 293,-36 293,0 370,0 370,-36"/>
<text text-anchor="middle" x="331.5" y="-14.3" font-family="Times,serif" font-size="14.00" fill="#000000">leaf = 0.04</text>
</g>
<!-- t1_2R&#45;&gt;t1_3R2 -->
<g id="edge8" class="edge">
<title>t1_2R&#45;&gt;t1_3R2</title>
<path fill="none" stroke="#000000" d="M254.5985,-75.0816C267.3087,-65.6471 284.0371,-53.2302 298.6449,-42.3873"/>
<polygon fill="#000000" stroke="#000000" points="301.0106,-44.9902 306.9543,-36.2195 296.8385,-39.3694 301.0106,-44.9902"/>
</g>
</g>
</svg>
