<?xml version="1.0" encoding="UTF-8" standalone="no"?>
<!DOCTYPE svg PUBLIC "-//W3C//DTD SVG 1.1//EN"
 "http://www.w3.org/Graphics/SVG/1.1/DTD/svg11.dtd">
<!-- Generated by graphviz version 2.40.1 (20161225.0304)
 -->
<!-- Title: %3 Pages: 1 -->
<svg width="298pt" height="284pt"
 viewBox="0.00 0.00 298.14 283.79" xmlns="http://www.w3.org/2000/svg" xmlns:xlink="http://www.w3.org/1999/xlink">
<g id="graph0" class="graph" transform="scale(1 1) rotate(0) translate(4 279.7947)">
<title>%3</title>
<polygon fill="#ffffff" stroke="transparent" points="-4,4 -4,-279.7947 294.1448,-279.7947 294.1448,4 -4,4"/>
<!-- t1 -->
<g id="node1" class="node">
<title>t1</title>
<ellipse fill="none" stroke="#000000" cx="190.2474" cy="-257.7947" rx="38.1938" ry="18"/>
<text text-anchor="middle" x="190.2474" y="-254.0947" font-family="Times,serif" font-size="14.00" fill="#000000">x1 &lt; 10</text>
</g>
<!-- t2_L -->
<g id="node2" class="node">
<title>t2_L</title>
<ellipse fill="none" stroke="#000000" cx="144.2474" cy="-185.7947" rx="34.394" ry="18"/>
<text text-anchor="middle" x="144.2474" y="-182.0947" font-family="Times,serif" font-size="14.00" fill="#000000">x2 &lt; 2</text>
</g>
<!-- t1&#45;&gt;t2_L -->
<g id="edge1" class="edge">
<title>t1&#45;&gt;t2_L</title>
<path fill="none" stroke="#000000" d="M179.1121,-240.3655C173.6313,-231.7869 166.9128,-221.2709 160.8414,-211.7679"/>
<polygon fill="#000000" stroke="#000000" points="163.6136,-209.606 155.2802,-203.0634 157.7147,-213.3747 163.6136,-209.606"/>
</g>
<!-- t2_R -->
<g id="node3" class="node">
<title>t2_R</title>
<polygon fill="none" stroke="#000000" points="277.7474,-203.7947 196.7474,-203.7947 196.7474,-167.7947 277.7474,-167.7947 277.7474,-203.7947"/>
<text text-anchor="middle" x="237.2474" y="-182.0947" font-family="Times,serif" font-size="14.00" fill="#000000">leaf = &#45;0.04</text>
</g>
<!-- t1&#45;&gt;t2_R -->
<g id="edge2" class="edge">
<title>t1&#45;&gt;t2_R</title>
<path fill="none" stroke="#000000" d="M201.6248,-240.3655C207.1012,-231.9762 213.7871,-221.7339 219.8812,-212.3982"/>
<polygon fill="#000000" stroke="#000000" points="222.9485,-214.1023 225.484,-203.8153 217.0869,-210.2759 222.9485,-214.1023"/>
</g>
<!-- L2 -->
<g id="node4" class="node">
<title>L2</title>
<ellipse fill="none" stroke="#000000" cx="106.2474" cy="-113.7947" rx="27" ry="18"/>
<text text-anchor="middle" x="106.2474" y="-110.0947" font-family="Times,serif" font-size="14.00" fill="#000000">L2</text>
</g>
<!-- t2_L&#45;&gt;L2 -->
<g id="edge3" class="edge">
<title>t2_L&#45;&gt;L2</title>
<path fill="none" stroke="#000000" d="M135.0487,-168.3655C130.5678,-159.8754 125.0853,-149.4875 120.1108,-140.0621"/>
<polygon fill="#000000" stroke="#000000" points="123.1244,-138.2736 115.3614,-131.0634 116.9337,-141.5409 123.1244,-138.2736"/>
</g>
<!-- R2 -->
<g id="node5" class="node">
<title>R2</title>
<ellipse fill="none" stroke="#000000" cx="183.2474" cy="-113.7947" rx="27" ry="18"/>
<text text-anchor="middle" x="183.2474" y="-110.0947" font-family="Times,serif" font-size="14.00" fill="#000000">R2</text>
</g>
<!-- t2_L&#45;&gt;R2 -->
<g id="edge4" class="edge">
<title>t2_L&#45;&gt;R2</title>
<path fill="none" stroke="#000000" d="M153.6882,-168.3655C158.287,-159.8754 163.9138,-149.4875 169.0192,-140.0621"/>
<polygon fill="#000000" stroke="#000000" points="172.2082,-141.5233 173.8935,-131.0634 166.0531,-138.1893 172.2082,-141.5233"/>
</g>
<!-- t3_L1 -->
<g id="node6" class="node">
<title>t3_L1</title>
<ellipse fill="none" stroke="#000000" cx="29.2474" cy="-29.8973" rx="29.4969" ry="29.4969"/>
<text text-anchor="middle" x="29.2474" y="-26.1973" font-family="Times,serif" font-size="14.00" fill="#000000">L3_1</text>
</g>
<!-- L2&#45;&gt;t3_L1 -->
<g id="edge5" class="edge">
<title>L2&#45;&gt;t3_L1</title>
<path fill="none" stroke="#000000" d="M92.1244,-98.4066C82.0348,-87.4133 68.1508,-72.2855 55.9954,-59.0413"/>
<polygon fill="#000000" stroke="#000000" points="58.4203,-56.5072 49.0799,-51.5064 53.2631,-61.2405 58.4203,-56.5072"/>
</g>
<!-- t3_R1 -->
<g id="node7" class="node">
<title>t3_R1</title>
<ellipse fill="none" stroke="#000000" cx="106.2474" cy="-29.8973" rx="29.795" ry="29.795"/>
<text text-anchor="middle" x="106.2474" y="-26.1973" font-family="Times,serif" font-size="14.00" fill="#000000">R3_1</text>
</g>
<!-- L2&#45;&gt;t3_R1 -->
<g id="edge6" class="edge">
<title>L2&#45;&gt;t3_R1</title>
<path fill="none" stroke="#000000" d="M106.2474,-95.5902C106.2474,-88.0269 106.2474,-78.9281 106.2474,-69.9457"/>
<polygon fill="#000000" stroke="#000000" points="109.7475,-69.9418 106.2474,-59.9418 102.7475,-69.9419 109.7475,-69.9418"/>
</g>
<!-- t3_L2 -->
<g id="node8" class="node">
<title>t3_L2</title>
<ellipse fill="none" stroke="#000000" cx="183.2474" cy="-29.8973" rx="29.4969" ry="29.4969"/>
<text text-anchor="middle" x="183.2474" y="-26.1973" font-family="Times,serif" font-size="14.00" fill="#000000">L3_2</text>
</g>
<!-- R2&#45;&gt;t3_L2 -->
<g id="edge7" class="edge">
<title>R2&#45;&gt;t3_L2</title>
<path fill="none" stroke="#000000" d="M183.2474,-95.5902C183.2474,-87.8868 183.2474,-78.5906 183.2474,-69.4468"/>
<polygon fill="#000000" stroke="#000000" points="186.7475,-69.281 183.2474,-59.2811 179.7475,-69.2811 186.7475,-69.281"/>
</g>
<!-- t3_R2 -->
<g id="node9" class="node">
<title>t3_R2</title>
<ellipse fill="none" stroke="#000000" cx="260.2474" cy="-29.8973" rx="29.795" ry="29.795"/>
<text text-anchor="middle" x="260.2474" y="-26.1973" font-family="Times,serif" font-size="14.00" fill="#000000">R3_2</text>
</g>
<!-- R2&#45;&gt;t3_R2 -->
<g id="edge8" class="edge">
<title>R2&#45;&gt;t3_R2</title>
<path fill="none" stroke="#000000" d="M197.3704,-98.4066C207.3148,-87.5714 220.9453,-72.72 232.9737,-59.6141"/>
<polygon fill="#000000" stroke="#000000" points="235.6476,-61.8769 239.8307,-52.1428 230.4904,-57.1437 235.6476,-61.8769"/>
</g>
</g>
</svg>
